<svg width="937" height="937" xmlns="http://www.w3.org/2000/svg">

 <g>
  <title>background</title>
  <rect fill="none" id="canvas_background" height="939" width="939" y="-1" x="-1"/>
 </g>
 <g>
  <title>Layer 1</title>
  <g id="svg_1">
   <g id="svg_2">
    <g id="svg_3">
     <g id="svg_4">
      <path id="svg_5" d="m725.149982,129.299985c14.1,14.1 28.1,28.1 42.2,42.2c22.5,22.5 45.1,45.1 67.6,67.6c5.2,5.2 10.3,10.3 15.5,15.5c0,-7.1 0,-14.1 0,-21.2c-14.1,14.1 -28.1,28.1 -42.2,42.2c-22.5,22.5 -45.1,45.1 -67.6,67.6c-5.2,5.2 -10.3,10.3 -15.5,15.5c-5.7,5.7 -5.7,15.5 0,21.2c5.7,5.7 15.5,5.7 21.2,0c14.1,-14.1 28.1,-28.1 42.2,-42.2c22.5,-22.5 45.1,-45.1 67.6,-67.6c5.2,-5.2 10.3,-10.3 15.5,-15.5c5.7,-5.7 5.7,-15.5 0,-21.2c-14.1,-14.1 -28.1,-28.1 -42.2,-42.2c-22.5,-22.5 -45.1,-45.1 -67.6,-67.6c-5.2,-5.2 -10.3,-10.3 -15.5,-15.5c-5.7,-5.7 -15.5,-5.7 -21.2,0c-5.8,5.7 -5.8,15.5 0,21.2l0,0z"/>
     </g>
    </g>
    <g id="svg_6">
     <g id="svg_7">
      <path id="svg_8" d="m725.149982,578.299985c14.1,14.1 28.1,28.1 42.2,42.2c22.5,22.5 45.1,45.1 67.6,67.6c5.2,5.2 10.3,10.3 15.5,15.5c0,-7.1 0,-14.1 0,-21.2c-14.1,14.1 -28.1,28.1 -42.2,42.2c-22.5,22.5 -45.1,45.1 -67.6,67.6c-5.2,5.2 -10.3,10.3 -15.5,15.5c-5.7,5.7 -5.7,15.5 0,21.2c5.7,5.7 15.5,5.7 21.2,0c14.1,-14.1 28.1,-28.1 42.2,-42.2c22.5,-22.5 45.1,-45.1 67.6,-67.6c5.2,-5.2 10.3,-10.3 15.5,-15.5c5.7,-5.7 5.7,-15.5 0,-21.2c-14.1,-14.1 -28.1,-28.1 -42.2,-42.2c-22.5,-22.5 -45.1,-45.1 -67.6,-67.6c-5.2,-5.2 -10.3,-10.3 -15.5,-15.5c-5.7,-5.7 -15.5,-5.7 -21.2,0c-5.8,5.7 -5.8,15.4 0,21.2l0,0z"/>
     </g>
    </g>
   </g>
   <g id="svg_9">
    <g id="svg_10">
     <path id="svg_11" d="m861.049982,228.999985c-25.8,0 -51.5,0 -77.3,0c-41.3,0 -82.5,0 -123.8,0c-9.8,0 -19.6,0 -29.5,0c-31.2,0.1 -61,11.5 -84.3,32.3c-15.4,13.7 -27.2,32.9 -39.4,49.5c-20.8,28.3 -41.6,56.7 -62.4,85c-26.1,35.6 -52.2,71.1 -78.3,106.7c-22.7,31 -45.4,61.9 -68.2,92.9c-11,14.9 -21.9,29.9 -32.9,44.8c-0.1,0.1 -0.2,0.3 -0.3,0.4c0,0 0,0.1 -0.1,0.1c-1.4,1.9 -0.1,0.2 -0.9,1.2c-2.7,3.3 -5.6,6.5 -8.7,9.5c-1.4,1.4 -2.9,2.8 -4.4,4.1c-0.8,0.7 -1.5,1.3 -2.3,1.9c-0.4,0.3 -0.8,0.6 -1.2,0.9c0.9,-0.6 0.9,-0.7 0.1,-0.1c-6.6,4.9 -13.8,9.1 -21.3,12.4c2.1,-0.9 -0.2,0.1 -0.6,0.2c-0.9,0.4 -1.9,0.7 -2.8,1.1c-1.9,0.7 -3.8,1.3 -5.7,1.9c-4.3,1.3 -8.8,2.2 -13.2,3.1c-0.4,0.1 -2.9,0.5 -0.5,0.1c-1,0.1 -2,0.2 -3,0.3c-2,0.2 -4.1,0.3 -6.1,0.4c-1.6,0.1 -3.3,0.1 -4.9,0.1c-1.3,0 -2.6,0 -3.9,0c-6.4,0 -12.8,0 -19.2,0c-38.8,0 -77.6,0 -116.4,0c-2.9,0 -5.9,0 -8.8,0c-7.8,0 -15.4,6.9 -15,15c0.4,8.1 6.6,15 15,15c32.3,0 64.7,0 97,0c15.9,0 31.8,0 47.8,0c26,0 51.5,-6.3 73.2,-21.1c13.9,-9.5 24.9,-21.5 34.8,-34.9c5.2,-7.1 10.4,-14.1 15.6,-21.2c20.1,-27.3 40.1,-54.7 60.2,-82c25.9,-35.3 51.8,-70.6 77.7,-105.9c23.4,-31.8 46.7,-63.7 70.1,-95.5c12.1,-16.5 24.2,-33.1 36.4,-49.6c0.3,-0.4 0.6,-0.9 0.9,-1.3c0.2,-0.3 0.4,-0.5 0.6,-0.8c1.5,-2 -1.1,1.4 0.5,-0.6c0.6,-0.8 1.3,-1.6 2,-2.3c1.5,-1.7 3,-3.4 4.6,-5.1c2.8,-2.9 5.8,-5.6 8.9,-8.2c2.2,-1.9 1,-0.9 0.5,-0.4c0.8,-0.6 1.6,-1.2 2.4,-1.8c2,-1.4 4.1,-2.8 6.3,-4.1c3.4,-2.1 6.9,-4 10.5,-5.7c0.9,-0.4 1.8,-0.8 2.7,-1.2c-2.1,0.9 0.2,-0.1 0.6,-0.2c2.3,-0.9 4.7,-1.7 7.1,-2.5c3.8,-1.2 7.7,-2.2 11.7,-3c1,-0.2 2,-0.4 3,-0.5c0.4,-0.1 2.9,-0.5 0.5,-0.1c2.3,-0.3 4.5,-0.5 6.8,-0.6c2.6,-0.2 5.1,-0.2 7.7,-0.2c3.4,0 6.9,0 10.3,0c37,0 74,0 111,0c34.4,0 68.8,0 103.2,0c2,0 3.9,0 5.9,0c7.8,0 15.4,-6.9 15,-15c-0.6,-8.1 -6.8,-15 -15.2,-15l0,0z"/>
    </g>
   </g>
   <g id="svg_12">
    <g id="svg_13">
     <path id="svg_14" d="m861.049982,677.999985c-26.2,0 -52.4,0 -78.6,0c-40.6,0 -81.2,0 -121.9,0c-7.9,0 -15.8,0 -23.7,0c-3.6,0 -7.1,-0.2 -10.7,-0.5c-1,-0.1 -2,-0.2 -3,-0.3c2.4,0.3 -0.1,-0.1 -0.5,-0.1c-2.5,-0.5 -4.9,-0.9 -7.4,-1.5c-3.9,-0.9 -7.7,-2.1 -11.5,-3.4c-0.9,-0.3 -1.9,-0.7 -2.8,-1.1c-0.3,-0.1 -2.6,-1.1 -0.6,-0.2c-2.1,-0.9 -4.1,-1.9 -6.1,-2.9c-3.6,-1.8 -7,-3.9 -10.3,-6.1c-1.7,-1.1 -3.3,-2.3 -4.9,-3.5c-2,-1.5 1.4,1.2 -0.5,-0.4c-1,-0.8 -1.9,-1.6 -2.9,-2.4c-3.2,-2.8 -6.3,-5.8 -9.2,-9c-1.4,-1.5 -2.7,-3.1 -4,-4.6c-0.9,-1.1 0.5,0.7 -0.9,-1.2c-9.5,-12.9 -19,-25.9 -28.5,-38.8c-22.1,-30.1 -44.2,-60.3 -66.3,-90.4c-26.1,-35.5 -52.1,-71 -78.2,-106.5c-21.7,-29.5 -43.3,-59 -65,-88.6c-10.4,-14.2 -20.4,-28.8 -31.5,-42.5c-23.1,-28.4 -59.2,-44.7 -95.6,-44.9c-10.3,-0.1 -20.6,0 -31,0c-38.7,0 -77.5,0 -116.2,0c-2.8,0 -5.6,0 -8.4,0c-7.8,0 -15.4,6.9 -15,15c0.4,8.1 6.6,15 15,15c31.7,0 63.4,0 95.1,0c17.4,0 34.9,0 52.3,0c3.2,0 6.5,0 9.7,0c4.1,0.1 8.2,0.3 12.2,0.9c-2.4,-0.3 0.1,0.1 0.5,0.1c1,0.2 2,0.3 3,0.5c2.5,0.5 4.9,1.1 7.3,1.7c9.3,2.5 13.4,4.2 21.4,8.6c3.5,1.9 6.9,4.1 10.1,6.4c0.8,0.6 1.6,1.2 2.4,1.8c-0.5,-0.4 -1.7,-1.5 0.5,0.4c1.7,1.5 3.4,2.9 5.1,4.5c3,2.8 5.8,5.7 8.4,8.8c0.7,0.8 1.3,1.6 2,2.3c1.8,2.2 -2,-2.8 0.9,1.2c0,0 0,0 0,0c0.8,1.1 1.6,2.2 2.4,3.3c5,6.8 10,13.6 15,20.4c19.9,27.1 39.8,54.3 59.8,81.4c26,35.4 51.9,70.8 77.9,106.2c23.4,31.9 46.8,63.7 70.2,95.6c12.4,16.9 24.8,33.9 37.3,50.8c13.5,18.4 30.4,33.6 51.5,42.8c18.6,8.1 37.8,11 57.9,11c35.6,0 71.1,0 106.7,0c34.9,0 69.7,0 104.6,0c2,0 4,0 6,0c7.8,0 15.4,-6.9 15,-15c-0.4,-8 -6.6,-14.8 -15,-14.8l0,0z"/>
    </g>
   </g>
  </g>
 </g>
</svg>